<mxfile host="app.diagrams.net" modified="2021-05-03T05:11:40.881Z" agent="5.0 (X11; Linux x86_64) AppleWebKit/537.36 (KHTML, like Gecko) Chrome/90.0.4430.93 Safari/537.36" etag="nLcbn2i3Zwe7k_ljLv89" version="14.6.9" type="github">
  <diagram id="035lXdUgcAVy7hiELmCE" name="Page-1">
    <mxGraphModel dx="2868" dy="3054" grid="1" gridSize="10" guides="1" tooltips="1" connect="1" arrows="1" fold="1" page="1" pageScale="1" pageWidth="827" pageHeight="1169" math="1" shadow="0">
      <root>
        <mxCell id="0" />
        <mxCell id="1" parent="0" />
        <mxCell id="Hw3TztuoLMvqJDftlQ13-126" value="" style="group" parent="1" vertex="1" connectable="0">
          <mxGeometry x="-1045" y="240" width="400" height="40" as="geometry" />
        </mxCell>
        <mxCell id="Hw3TztuoLMvqJDftlQ13-123" value="" style="shape=curlyBracket;whiteSpace=wrap;html=1;rounded=1;strokeWidth=1;rotation=-90;" parent="Hw3TztuoLMvqJDftlQ13-126" vertex="1">
          <mxGeometry x="190" y="-190" width="20" height="400" as="geometry" />
        </mxCell>
        <mxCell id="Hw3TztuoLMvqJDftlQ13-125" value="&lt;font style=&quot;font-size: 18px&quot;&gt;sub-slot&lt;/font&gt;" style="text;html=1;align=center;verticalAlign=middle;resizable=0;points=[];autosize=1;strokeColor=none;" parent="Hw3TztuoLMvqJDftlQ13-126" vertex="1">
          <mxGeometry x="160" y="20" width="80" height="20" as="geometry" />
        </mxCell>
        <mxCell id="Hw3TztuoLMvqJDftlQ13-127" value="" style="group" parent="1" vertex="1" connectable="0">
          <mxGeometry x="-1165" y="-260" width="1043.142857142857" height="65" as="geometry" />
        </mxCell>
        <mxCell id="Hw3TztuoLMvqJDftlQ13-1" value="&lt;font style=&quot;font-size: 18px&quot;&gt;c1&lt;/font&gt;" style="rounded=0;whiteSpace=wrap;html=1;strokeWidth=1;" parent="Hw3TztuoLMvqJDftlQ13-127" vertex="1">
          <mxGeometry x="90" y="5" width="60" height="60" as="geometry" />
        </mxCell>
        <mxCell id="Hw3TztuoLMvqJDftlQ13-38" value="" style="group" parent="Hw3TztuoLMvqJDftlQ13-127" vertex="1" connectable="0">
          <mxGeometry x="170" y="30" width="320" height="10" as="geometry" />
        </mxCell>
        <mxCell id="Hw3TztuoLMvqJDftlQ13-2" value="" style="ellipse;whiteSpace=wrap;html=1;aspect=fixed;" parent="Hw3TztuoLMvqJDftlQ13-38" vertex="1">
          <mxGeometry width="10" height="10" as="geometry" />
        </mxCell>
        <mxCell id="Hw3TztuoLMvqJDftlQ13-29" value="" style="ellipse;whiteSpace=wrap;html=1;aspect=fixed;" parent="Hw3TztuoLMvqJDftlQ13-38" vertex="1">
          <mxGeometry x="36.57142857142857" width="10" height="10" as="geometry" />
        </mxCell>
        <mxCell id="Hw3TztuoLMvqJDftlQ13-30" value="" style="ellipse;whiteSpace=wrap;html=1;aspect=fixed;" parent="Hw3TztuoLMvqJDftlQ13-38" vertex="1">
          <mxGeometry x="73.14285714285714" width="10" height="10" as="geometry" />
        </mxCell>
        <mxCell id="Hw3TztuoLMvqJDftlQ13-31" value="" style="ellipse;whiteSpace=wrap;html=1;aspect=fixed;" parent="Hw3TztuoLMvqJDftlQ13-38" vertex="1">
          <mxGeometry x="109.71428571428571" width="10" height="10" as="geometry" />
        </mxCell>
        <mxCell id="Hw3TztuoLMvqJDftlQ13-32" value="" style="ellipse;whiteSpace=wrap;html=1;aspect=fixed;" parent="Hw3TztuoLMvqJDftlQ13-38" vertex="1">
          <mxGeometry x="146.28571428571428" width="10" height="10" as="geometry" />
        </mxCell>
        <mxCell id="Hw3TztuoLMvqJDftlQ13-33" value="" style="ellipse;whiteSpace=wrap;html=1;aspect=fixed;" parent="Hw3TztuoLMvqJDftlQ13-38" vertex="1">
          <mxGeometry x="182.85714285714283" width="10" height="10" as="geometry" />
        </mxCell>
        <mxCell id="Hw3TztuoLMvqJDftlQ13-34" value="" style="ellipse;whiteSpace=wrap;html=1;aspect=fixed;" parent="Hw3TztuoLMvqJDftlQ13-38" vertex="1">
          <mxGeometry x="219.42857142857142" width="10" height="10" as="geometry" />
        </mxCell>
        <mxCell id="Hw3TztuoLMvqJDftlQ13-35" value="" style="ellipse;whiteSpace=wrap;html=1;aspect=fixed;" parent="Hw3TztuoLMvqJDftlQ13-38" vertex="1">
          <mxGeometry x="256" width="10" height="10" as="geometry" />
        </mxCell>
        <mxCell id="Hw3TztuoLMvqJDftlQ13-36" value="" style="ellipse;whiteSpace=wrap;html=1;aspect=fixed;" parent="Hw3TztuoLMvqJDftlQ13-38" vertex="1">
          <mxGeometry x="292.57142857142856" width="10" height="10" as="geometry" />
        </mxCell>
        <mxCell id="Hw3TztuoLMvqJDftlQ13-39" value="&lt;font style=&quot;font-size: 18px&quot;&gt;c2&lt;/font&gt;" style="rounded=0;whiteSpace=wrap;html=1;strokeWidth=1;" parent="Hw3TztuoLMvqJDftlQ13-127" vertex="1">
          <mxGeometry x="490" y="5" width="60" height="60" as="geometry" />
        </mxCell>
        <mxCell id="Hw3TztuoLMvqJDftlQ13-41" value="&lt;font style=&quot;font-size: 18px&quot;&gt;100M&lt;/font&gt;" style="text;html=1;align=center;verticalAlign=middle;resizable=0;points=[];autosize=1;strokeColor=none;" parent="Hw3TztuoLMvqJDftlQ13-127" vertex="1">
          <mxGeometry x="300" width="60" height="20" as="geometry" />
        </mxCell>
        <mxCell id="Hw3TztuoLMvqJDftlQ13-42" value="" style="group" parent="Hw3TztuoLMvqJDftlQ13-127" vertex="1" connectable="0">
          <mxGeometry x="570" y="30" width="320" height="10" as="geometry" />
        </mxCell>
        <mxCell id="Hw3TztuoLMvqJDftlQ13-43" value="" style="ellipse;whiteSpace=wrap;html=1;aspect=fixed;" parent="Hw3TztuoLMvqJDftlQ13-42" vertex="1">
          <mxGeometry width="10" height="10" as="geometry" />
        </mxCell>
        <mxCell id="Hw3TztuoLMvqJDftlQ13-44" value="" style="ellipse;whiteSpace=wrap;html=1;aspect=fixed;" parent="Hw3TztuoLMvqJDftlQ13-42" vertex="1">
          <mxGeometry x="36.57142857142857" width="10" height="10" as="geometry" />
        </mxCell>
        <mxCell id="Hw3TztuoLMvqJDftlQ13-45" value="" style="ellipse;whiteSpace=wrap;html=1;aspect=fixed;" parent="Hw3TztuoLMvqJDftlQ13-42" vertex="1">
          <mxGeometry x="73.14285714285714" width="10" height="10" as="geometry" />
        </mxCell>
        <mxCell id="Hw3TztuoLMvqJDftlQ13-46" value="" style="ellipse;whiteSpace=wrap;html=1;aspect=fixed;" parent="Hw3TztuoLMvqJDftlQ13-42" vertex="1">
          <mxGeometry x="109.71428571428571" width="10" height="10" as="geometry" />
        </mxCell>
        <mxCell id="Hw3TztuoLMvqJDftlQ13-47" value="" style="ellipse;whiteSpace=wrap;html=1;aspect=fixed;" parent="Hw3TztuoLMvqJDftlQ13-42" vertex="1">
          <mxGeometry x="146.28571428571428" width="10" height="10" as="geometry" />
        </mxCell>
        <mxCell id="Hw3TztuoLMvqJDftlQ13-48" value="" style="ellipse;whiteSpace=wrap;html=1;aspect=fixed;" parent="Hw3TztuoLMvqJDftlQ13-42" vertex="1">
          <mxGeometry x="182.85714285714283" width="10" height="10" as="geometry" />
        </mxCell>
        <mxCell id="Hw3TztuoLMvqJDftlQ13-49" value="" style="ellipse;whiteSpace=wrap;html=1;aspect=fixed;" parent="Hw3TztuoLMvqJDftlQ13-42" vertex="1">
          <mxGeometry x="219.42857142857142" width="10" height="10" as="geometry" />
        </mxCell>
        <mxCell id="Hw3TztuoLMvqJDftlQ13-50" value="" style="ellipse;whiteSpace=wrap;html=1;aspect=fixed;" parent="Hw3TztuoLMvqJDftlQ13-42" vertex="1">
          <mxGeometry x="256" width="10" height="10" as="geometry" />
        </mxCell>
        <mxCell id="Hw3TztuoLMvqJDftlQ13-51" value="" style="ellipse;whiteSpace=wrap;html=1;aspect=fixed;" parent="Hw3TztuoLMvqJDftlQ13-42" vertex="1">
          <mxGeometry x="292.57142857142856" width="10" height="10" as="geometry" />
        </mxCell>
        <mxCell id="Hw3TztuoLMvqJDftlQ13-52" value="&lt;font style=&quot;font-size: 18px&quot;&gt;c3&lt;/font&gt;" style="rounded=0;whiteSpace=wrap;html=1;strokeWidth=1;" parent="Hw3TztuoLMvqJDftlQ13-127" vertex="1">
          <mxGeometry x="890" y="5" width="60" height="60" as="geometry" />
        </mxCell>
        <mxCell id="Hw3TztuoLMvqJDftlQ13-53" value="&lt;font style=&quot;font-size: 18px&quot;&gt;100M&lt;/font&gt;" style="text;html=1;align=center;verticalAlign=middle;resizable=0;points=[];autosize=1;strokeColor=none;" parent="Hw3TztuoLMvqJDftlQ13-127" vertex="1">
          <mxGeometry x="700" width="60" height="20" as="geometry" />
        </mxCell>
        <mxCell id="Hw3TztuoLMvqJDftlQ13-54" value="" style="ellipse;whiteSpace=wrap;html=1;aspect=fixed;" parent="Hw3TztuoLMvqJDftlQ13-127" vertex="1">
          <mxGeometry x="960" y="30" width="10" height="10" as="geometry" />
        </mxCell>
        <mxCell id="Hw3TztuoLMvqJDftlQ13-55" value="" style="ellipse;whiteSpace=wrap;html=1;aspect=fixed;" parent="Hw3TztuoLMvqJDftlQ13-127" vertex="1">
          <mxGeometry x="996.5714285714286" y="30" width="10" height="10" as="geometry" />
        </mxCell>
        <mxCell id="Hw3TztuoLMvqJDftlQ13-56" value="" style="ellipse;whiteSpace=wrap;html=1;aspect=fixed;" parent="Hw3TztuoLMvqJDftlQ13-127" vertex="1">
          <mxGeometry x="1033.142857142857" y="30" width="10" height="10" as="geometry" />
        </mxCell>
        <mxCell id="Hw3TztuoLMvqJDftlQ13-57" value="" style="ellipse;whiteSpace=wrap;html=1;aspect=fixed;" parent="Hw3TztuoLMvqJDftlQ13-127" vertex="1">
          <mxGeometry y="30" width="10" height="10" as="geometry" />
        </mxCell>
        <mxCell id="Hw3TztuoLMvqJDftlQ13-58" value="" style="ellipse;whiteSpace=wrap;html=1;aspect=fixed;" parent="Hw3TztuoLMvqJDftlQ13-127" vertex="1">
          <mxGeometry x="36.571428571428555" y="30" width="10" height="10" as="geometry" />
        </mxCell>
        <mxCell id="Hw3TztuoLMvqJDftlQ13-59" value="" style="ellipse;whiteSpace=wrap;html=1;aspect=fixed;" parent="Hw3TztuoLMvqJDftlQ13-127" vertex="1">
          <mxGeometry x="73.14285714285714" y="30" width="10" height="10" as="geometry" />
        </mxCell>
        <mxCell id="Hw3TztuoLMvqJDftlQ13-128" value="" style="group" parent="1" vertex="1" connectable="0">
          <mxGeometry x="-1165" y="-55" width="1043.142857142857" height="60" as="geometry" />
        </mxCell>
        <mxCell id="Hw3TztuoLMvqJDftlQ13-60" value="&lt;font style=&quot;font-size: 18px&quot;&gt;ic1&lt;/font&gt;" style="rounded=0;whiteSpace=wrap;html=1;strokeWidth=1;" parent="Hw3TztuoLMvqJDftlQ13-128" vertex="1">
          <mxGeometry x="90" width="60" height="60" as="geometry" />
        </mxCell>
        <mxCell id="Hw3TztuoLMvqJDftlQ13-61" value="" style="group" parent="Hw3TztuoLMvqJDftlQ13-128" vertex="1" connectable="0">
          <mxGeometry x="170" y="25" width="320" height="10" as="geometry" />
        </mxCell>
        <mxCell id="Hw3TztuoLMvqJDftlQ13-62" value="" style="ellipse;whiteSpace=wrap;html=1;aspect=fixed;" parent="Hw3TztuoLMvqJDftlQ13-61" vertex="1">
          <mxGeometry width="10" height="10" as="geometry" />
        </mxCell>
        <mxCell id="Hw3TztuoLMvqJDftlQ13-63" value="" style="ellipse;whiteSpace=wrap;html=1;aspect=fixed;" parent="Hw3TztuoLMvqJDftlQ13-61" vertex="1">
          <mxGeometry x="36.57142857142857" width="10" height="10" as="geometry" />
        </mxCell>
        <mxCell id="Hw3TztuoLMvqJDftlQ13-64" value="" style="ellipse;whiteSpace=wrap;html=1;aspect=fixed;" parent="Hw3TztuoLMvqJDftlQ13-61" vertex="1">
          <mxGeometry x="73.14285714285714" width="10" height="10" as="geometry" />
        </mxCell>
        <mxCell id="Hw3TztuoLMvqJDftlQ13-65" value="" style="ellipse;whiteSpace=wrap;html=1;aspect=fixed;" parent="Hw3TztuoLMvqJDftlQ13-61" vertex="1">
          <mxGeometry x="109.71428571428571" width="10" height="10" as="geometry" />
        </mxCell>
        <mxCell id="Hw3TztuoLMvqJDftlQ13-66" value="" style="ellipse;whiteSpace=wrap;html=1;aspect=fixed;" parent="Hw3TztuoLMvqJDftlQ13-61" vertex="1">
          <mxGeometry x="146.28571428571428" width="10" height="10" as="geometry" />
        </mxCell>
        <mxCell id="Hw3TztuoLMvqJDftlQ13-67" value="" style="ellipse;whiteSpace=wrap;html=1;aspect=fixed;" parent="Hw3TztuoLMvqJDftlQ13-61" vertex="1">
          <mxGeometry x="182.85714285714283" width="10" height="10" as="geometry" />
        </mxCell>
        <mxCell id="Hw3TztuoLMvqJDftlQ13-68" value="" style="ellipse;whiteSpace=wrap;html=1;aspect=fixed;" parent="Hw3TztuoLMvqJDftlQ13-61" vertex="1">
          <mxGeometry x="219.42857142857142" width="10" height="10" as="geometry" />
        </mxCell>
        <mxCell id="Hw3TztuoLMvqJDftlQ13-69" value="" style="ellipse;whiteSpace=wrap;html=1;aspect=fixed;" parent="Hw3TztuoLMvqJDftlQ13-61" vertex="1">
          <mxGeometry x="256" width="10" height="10" as="geometry" />
        </mxCell>
        <mxCell id="Hw3TztuoLMvqJDftlQ13-70" value="" style="ellipse;whiteSpace=wrap;html=1;aspect=fixed;" parent="Hw3TztuoLMvqJDftlQ13-61" vertex="1">
          <mxGeometry x="292.57142857142856" width="10" height="10" as="geometry" />
        </mxCell>
        <mxCell id="Hw3TztuoLMvqJDftlQ13-71" value="&lt;font style=&quot;font-size: 18px&quot;&gt;ic2&lt;/font&gt;" style="rounded=0;whiteSpace=wrap;html=1;strokeWidth=1;" parent="Hw3TztuoLMvqJDftlQ13-128" vertex="1">
          <mxGeometry x="490" width="60" height="60" as="geometry" />
        </mxCell>
        <mxCell id="Hw3TztuoLMvqJDftlQ13-73" value="" style="group" parent="Hw3TztuoLMvqJDftlQ13-128" vertex="1" connectable="0">
          <mxGeometry x="570" y="25" width="320" height="10" as="geometry" />
        </mxCell>
        <mxCell id="Hw3TztuoLMvqJDftlQ13-74" value="" style="ellipse;whiteSpace=wrap;html=1;aspect=fixed;" parent="Hw3TztuoLMvqJDftlQ13-73" vertex="1">
          <mxGeometry width="10" height="10" as="geometry" />
        </mxCell>
        <mxCell id="Hw3TztuoLMvqJDftlQ13-75" value="" style="ellipse;whiteSpace=wrap;html=1;aspect=fixed;" parent="Hw3TztuoLMvqJDftlQ13-73" vertex="1">
          <mxGeometry x="36.57142857142857" width="10" height="10" as="geometry" />
        </mxCell>
        <mxCell id="Hw3TztuoLMvqJDftlQ13-76" value="" style="ellipse;whiteSpace=wrap;html=1;aspect=fixed;" parent="Hw3TztuoLMvqJDftlQ13-73" vertex="1">
          <mxGeometry x="73.14285714285714" width="10" height="10" as="geometry" />
        </mxCell>
        <mxCell id="Hw3TztuoLMvqJDftlQ13-77" value="" style="ellipse;whiteSpace=wrap;html=1;aspect=fixed;" parent="Hw3TztuoLMvqJDftlQ13-73" vertex="1">
          <mxGeometry x="109.71428571428571" width="10" height="10" as="geometry" />
        </mxCell>
        <mxCell id="Hw3TztuoLMvqJDftlQ13-78" value="" style="ellipse;whiteSpace=wrap;html=1;aspect=fixed;" parent="Hw3TztuoLMvqJDftlQ13-73" vertex="1">
          <mxGeometry x="146.28571428571428" width="10" height="10" as="geometry" />
        </mxCell>
        <mxCell id="Hw3TztuoLMvqJDftlQ13-79" value="" style="ellipse;whiteSpace=wrap;html=1;aspect=fixed;" parent="Hw3TztuoLMvqJDftlQ13-73" vertex="1">
          <mxGeometry x="182.85714285714283" width="10" height="10" as="geometry" />
        </mxCell>
        <mxCell id="Hw3TztuoLMvqJDftlQ13-80" value="" style="ellipse;whiteSpace=wrap;html=1;aspect=fixed;" parent="Hw3TztuoLMvqJDftlQ13-73" vertex="1">
          <mxGeometry x="219.42857142857142" width="10" height="10" as="geometry" />
        </mxCell>
        <mxCell id="Hw3TztuoLMvqJDftlQ13-81" value="" style="ellipse;whiteSpace=wrap;html=1;aspect=fixed;" parent="Hw3TztuoLMvqJDftlQ13-73" vertex="1">
          <mxGeometry x="256" width="10" height="10" as="geometry" />
        </mxCell>
        <mxCell id="Hw3TztuoLMvqJDftlQ13-82" value="" style="ellipse;whiteSpace=wrap;html=1;aspect=fixed;" parent="Hw3TztuoLMvqJDftlQ13-73" vertex="1">
          <mxGeometry x="292.57142857142856" width="10" height="10" as="geometry" />
        </mxCell>
        <mxCell id="Hw3TztuoLMvqJDftlQ13-83" value="&lt;font style=&quot;font-size: 18px&quot;&gt;ic3&lt;/font&gt;" style="rounded=0;whiteSpace=wrap;html=1;strokeWidth=1;" parent="Hw3TztuoLMvqJDftlQ13-128" vertex="1">
          <mxGeometry x="890" width="60" height="60" as="geometry" />
        </mxCell>
        <mxCell id="Hw3TztuoLMvqJDftlQ13-85" value="" style="ellipse;whiteSpace=wrap;html=1;aspect=fixed;" parent="Hw3TztuoLMvqJDftlQ13-128" vertex="1">
          <mxGeometry x="960" y="25" width="10" height="10" as="geometry" />
        </mxCell>
        <mxCell id="Hw3TztuoLMvqJDftlQ13-86" value="" style="ellipse;whiteSpace=wrap;html=1;aspect=fixed;" parent="Hw3TztuoLMvqJDftlQ13-128" vertex="1">
          <mxGeometry x="996.5714285714286" y="25" width="10" height="10" as="geometry" />
        </mxCell>
        <mxCell id="Hw3TztuoLMvqJDftlQ13-87" value="" style="ellipse;whiteSpace=wrap;html=1;aspect=fixed;" parent="Hw3TztuoLMvqJDftlQ13-128" vertex="1">
          <mxGeometry x="1033.142857142857" y="25" width="10" height="10" as="geometry" />
        </mxCell>
        <mxCell id="Hw3TztuoLMvqJDftlQ13-88" value="" style="ellipse;whiteSpace=wrap;html=1;aspect=fixed;" parent="Hw3TztuoLMvqJDftlQ13-128" vertex="1">
          <mxGeometry y="25" width="10" height="10" as="geometry" />
        </mxCell>
        <mxCell id="Hw3TztuoLMvqJDftlQ13-89" value="" style="ellipse;whiteSpace=wrap;html=1;aspect=fixed;" parent="Hw3TztuoLMvqJDftlQ13-128" vertex="1">
          <mxGeometry x="36.571428571428555" y="25" width="10" height="10" as="geometry" />
        </mxCell>
        <mxCell id="Hw3TztuoLMvqJDftlQ13-90" value="" style="ellipse;whiteSpace=wrap;html=1;aspect=fixed;" parent="Hw3TztuoLMvqJDftlQ13-128" vertex="1">
          <mxGeometry x="73.14285714285714" y="25" width="10" height="10" as="geometry" />
        </mxCell>
        <mxCell id="Hw3TztuoLMvqJDftlQ13-129" value="" style="group" parent="1" vertex="1" connectable="0">
          <mxGeometry x="-1166.57" y="155" width="1043.142857142857" height="60" as="geometry" />
        </mxCell>
        <mxCell id="Hw3TztuoLMvqJDftlQ13-91" value="&lt;font style=&quot;font-size: 18px&quot;&gt;r1&lt;/font&gt;" style="rounded=0;whiteSpace=wrap;html=1;strokeWidth=1;" parent="Hw3TztuoLMvqJDftlQ13-129" vertex="1">
          <mxGeometry x="90" width="60" height="60" as="geometry" />
        </mxCell>
        <mxCell id="Hw3TztuoLMvqJDftlQ13-92" value="" style="group" parent="Hw3TztuoLMvqJDftlQ13-129" vertex="1" connectable="0">
          <mxGeometry x="170" y="25" width="320" height="10" as="geometry" />
        </mxCell>
        <mxCell id="Hw3TztuoLMvqJDftlQ13-93" value="" style="ellipse;whiteSpace=wrap;html=1;aspect=fixed;" parent="Hw3TztuoLMvqJDftlQ13-92" vertex="1">
          <mxGeometry width="10" height="10" as="geometry" />
        </mxCell>
        <mxCell id="Hw3TztuoLMvqJDftlQ13-94" value="" style="ellipse;whiteSpace=wrap;html=1;aspect=fixed;" parent="Hw3TztuoLMvqJDftlQ13-92" vertex="1">
          <mxGeometry x="36.57142857142857" width="10" height="10" as="geometry" />
        </mxCell>
        <mxCell id="Hw3TztuoLMvqJDftlQ13-95" value="" style="ellipse;whiteSpace=wrap;html=1;aspect=fixed;" parent="Hw3TztuoLMvqJDftlQ13-92" vertex="1">
          <mxGeometry x="73.14285714285714" width="10" height="10" as="geometry" />
        </mxCell>
        <mxCell id="Hw3TztuoLMvqJDftlQ13-96" value="" style="ellipse;whiteSpace=wrap;html=1;aspect=fixed;" parent="Hw3TztuoLMvqJDftlQ13-92" vertex="1">
          <mxGeometry x="109.71428571428571" width="10" height="10" as="geometry" />
        </mxCell>
        <mxCell id="Hw3TztuoLMvqJDftlQ13-97" value="" style="ellipse;whiteSpace=wrap;html=1;aspect=fixed;" parent="Hw3TztuoLMvqJDftlQ13-92" vertex="1">
          <mxGeometry x="146.28571428571428" width="10" height="10" as="geometry" />
        </mxCell>
        <mxCell id="Hw3TztuoLMvqJDftlQ13-98" value="" style="ellipse;whiteSpace=wrap;html=1;aspect=fixed;" parent="Hw3TztuoLMvqJDftlQ13-92" vertex="1">
          <mxGeometry x="182.85714285714283" width="10" height="10" as="geometry" />
        </mxCell>
        <mxCell id="Hw3TztuoLMvqJDftlQ13-99" value="" style="ellipse;whiteSpace=wrap;html=1;aspect=fixed;" parent="Hw3TztuoLMvqJDftlQ13-92" vertex="1">
          <mxGeometry x="219.42857142857142" width="10" height="10" as="geometry" />
        </mxCell>
        <mxCell id="Hw3TztuoLMvqJDftlQ13-100" value="" style="ellipse;whiteSpace=wrap;html=1;aspect=fixed;" parent="Hw3TztuoLMvqJDftlQ13-92" vertex="1">
          <mxGeometry x="256" width="10" height="10" as="geometry" />
        </mxCell>
        <mxCell id="Hw3TztuoLMvqJDftlQ13-101" value="" style="ellipse;whiteSpace=wrap;html=1;aspect=fixed;" parent="Hw3TztuoLMvqJDftlQ13-92" vertex="1">
          <mxGeometry x="292.57142857142856" width="10" height="10" as="geometry" />
        </mxCell>
        <mxCell id="Hw3TztuoLMvqJDftlQ13-102" value="&lt;font style=&quot;font-size: 18px&quot;&gt;r2&lt;/font&gt;" style="rounded=0;whiteSpace=wrap;html=1;strokeWidth=1;" parent="Hw3TztuoLMvqJDftlQ13-129" vertex="1">
          <mxGeometry x="490" width="60" height="60" as="geometry" />
        </mxCell>
        <mxCell id="Hw3TztuoLMvqJDftlQ13-104" value="" style="group" parent="Hw3TztuoLMvqJDftlQ13-129" vertex="1" connectable="0">
          <mxGeometry x="570" y="25" width="320" height="10" as="geometry" />
        </mxCell>
        <mxCell id="Hw3TztuoLMvqJDftlQ13-105" value="" style="ellipse;whiteSpace=wrap;html=1;aspect=fixed;" parent="Hw3TztuoLMvqJDftlQ13-104" vertex="1">
          <mxGeometry width="10" height="10" as="geometry" />
        </mxCell>
        <mxCell id="Hw3TztuoLMvqJDftlQ13-106" value="" style="ellipse;whiteSpace=wrap;html=1;aspect=fixed;" parent="Hw3TztuoLMvqJDftlQ13-104" vertex="1">
          <mxGeometry x="36.57142857142857" width="10" height="10" as="geometry" />
        </mxCell>
        <mxCell id="Hw3TztuoLMvqJDftlQ13-107" value="" style="ellipse;whiteSpace=wrap;html=1;aspect=fixed;" parent="Hw3TztuoLMvqJDftlQ13-104" vertex="1">
          <mxGeometry x="73.14285714285714" width="10" height="10" as="geometry" />
        </mxCell>
        <mxCell id="Hw3TztuoLMvqJDftlQ13-108" value="" style="ellipse;whiteSpace=wrap;html=1;aspect=fixed;" parent="Hw3TztuoLMvqJDftlQ13-104" vertex="1">
          <mxGeometry x="109.71428571428571" width="10" height="10" as="geometry" />
        </mxCell>
        <mxCell id="Hw3TztuoLMvqJDftlQ13-109" value="" style="ellipse;whiteSpace=wrap;html=1;aspect=fixed;" parent="Hw3TztuoLMvqJDftlQ13-104" vertex="1">
          <mxGeometry x="146.28571428571428" width="10" height="10" as="geometry" />
        </mxCell>
        <mxCell id="Hw3TztuoLMvqJDftlQ13-110" value="" style="ellipse;whiteSpace=wrap;html=1;aspect=fixed;" parent="Hw3TztuoLMvqJDftlQ13-104" vertex="1">
          <mxGeometry x="182.85714285714283" width="10" height="10" as="geometry" />
        </mxCell>
        <mxCell id="Hw3TztuoLMvqJDftlQ13-111" value="" style="ellipse;whiteSpace=wrap;html=1;aspect=fixed;" parent="Hw3TztuoLMvqJDftlQ13-104" vertex="1">
          <mxGeometry x="219.42857142857142" width="10" height="10" as="geometry" />
        </mxCell>
        <mxCell id="Hw3TztuoLMvqJDftlQ13-112" value="" style="ellipse;whiteSpace=wrap;html=1;aspect=fixed;" parent="Hw3TztuoLMvqJDftlQ13-104" vertex="1">
          <mxGeometry x="256" width="10" height="10" as="geometry" />
        </mxCell>
        <mxCell id="Hw3TztuoLMvqJDftlQ13-113" value="" style="ellipse;whiteSpace=wrap;html=1;aspect=fixed;" parent="Hw3TztuoLMvqJDftlQ13-104" vertex="1">
          <mxGeometry x="292.57142857142856" width="10" height="10" as="geometry" />
        </mxCell>
        <mxCell id="Hw3TztuoLMvqJDftlQ13-114" value="&lt;font style=&quot;font-size: 18px&quot;&gt;r3&lt;/font&gt;" style="rounded=0;whiteSpace=wrap;html=1;strokeWidth=1;" parent="Hw3TztuoLMvqJDftlQ13-129" vertex="1">
          <mxGeometry x="890" width="60" height="60" as="geometry" />
        </mxCell>
        <mxCell id="Hw3TztuoLMvqJDftlQ13-116" value="" style="ellipse;whiteSpace=wrap;html=1;aspect=fixed;" parent="Hw3TztuoLMvqJDftlQ13-129" vertex="1">
          <mxGeometry x="960" y="25" width="10" height="10" as="geometry" />
        </mxCell>
        <mxCell id="Hw3TztuoLMvqJDftlQ13-117" value="" style="ellipse;whiteSpace=wrap;html=1;aspect=fixed;" parent="Hw3TztuoLMvqJDftlQ13-129" vertex="1">
          <mxGeometry x="996.5714285714286" y="25" width="10" height="10" as="geometry" />
        </mxCell>
        <mxCell id="Hw3TztuoLMvqJDftlQ13-118" value="" style="ellipse;whiteSpace=wrap;html=1;aspect=fixed;" parent="Hw3TztuoLMvqJDftlQ13-129" vertex="1">
          <mxGeometry x="1033.142857142857" y="25" width="10" height="10" as="geometry" />
        </mxCell>
        <mxCell id="Hw3TztuoLMvqJDftlQ13-119" value="" style="ellipse;whiteSpace=wrap;html=1;aspect=fixed;" parent="Hw3TztuoLMvqJDftlQ13-129" vertex="1">
          <mxGeometry y="25" width="10" height="10" as="geometry" />
        </mxCell>
        <mxCell id="Hw3TztuoLMvqJDftlQ13-120" value="" style="ellipse;whiteSpace=wrap;html=1;aspect=fixed;" parent="Hw3TztuoLMvqJDftlQ13-129" vertex="1">
          <mxGeometry x="36.571428571428555" y="25" width="10" height="10" as="geometry" />
        </mxCell>
        <mxCell id="Hw3TztuoLMvqJDftlQ13-121" value="" style="ellipse;whiteSpace=wrap;html=1;aspect=fixed;" parent="Hw3TztuoLMvqJDftlQ13-129" vertex="1">
          <mxGeometry x="73.14285714285714" y="25" width="10" height="10" as="geometry" />
        </mxCell>
        <mxCell id="Hw3TztuoLMvqJDftlQ13-133" value="Challenge&lt;br&gt;chain" style="text;strokeColor=none;fillColor=none;html=1;fontSize=24;fontStyle=1;verticalAlign=middle;align=center;" parent="1" vertex="1">
          <mxGeometry x="-1345" y="-247.5" width="100" height="40" as="geometry" />
        </mxCell>
        <mxCell id="Hw3TztuoLMvqJDftlQ13-134" value="Infused &lt;br&gt;challenge&lt;br&gt;chain" style="text;strokeColor=none;fillColor=none;html=1;fontSize=24;fontStyle=1;verticalAlign=middle;align=center;" parent="1" vertex="1">
          <mxGeometry x="-1345" y="-45" width="100" height="40" as="geometry" />
        </mxCell>
        <mxCell id="Hw3TztuoLMvqJDftlQ13-135" value="Reward&lt;br&gt;chain" style="text;strokeColor=none;fillColor=none;html=1;fontSize=24;fontStyle=1;verticalAlign=middle;align=center;" parent="1" vertex="1">
          <mxGeometry x="-1345" y="165" width="100" height="40" as="geometry" />
        </mxCell>
        <mxCell id="Hw3TztuoLMvqJDftlQ13-136" value="" style="shape=curlyBracket;whiteSpace=wrap;html=1;rounded=1;strokeWidth=1;rotation=90;" parent="1" vertex="1">
          <mxGeometry x="-985" y="117.5" width="20" height="45" as="geometry" />
        </mxCell>
        <mxCell id="Hw3TztuoLMvqJDftlQ13-137" value="" style="shape=curlyBracket;whiteSpace=wrap;html=1;rounded=1;strokeWidth=1;rotation=90;" parent="1" vertex="1">
          <mxGeometry x="-907.5" y="117.5" width="20" height="45" as="geometry" />
        </mxCell>
        <mxCell id="Hw3TztuoLMvqJDftlQ13-139" value="" style="shape=curlyBracket;whiteSpace=wrap;html=1;rounded=1;strokeWidth=1;rotation=90;" parent="1" vertex="1">
          <mxGeometry x="-835" y="117.5" width="20" height="45" as="geometry" />
        </mxCell>
        <mxCell id="Hw3TztuoLMvqJDftlQ13-140" value="" style="shape=curlyBracket;whiteSpace=wrap;html=1;rounded=1;strokeWidth=1;rotation=90;" parent="1" vertex="1">
          <mxGeometry x="-765" y="117.5" width="20" height="45" as="geometry" />
        </mxCell>
        <mxCell id="Hw3TztuoLMvqJDftlQ13-141" value="" style="endArrow=none;html=1;" parent="1" edge="1">
          <mxGeometry width="50" height="50" relative="1" as="geometry">
            <mxPoint x="-935" y="187.5" as="sourcePoint" />
            <mxPoint x="-935" y="60" as="targetPoint" />
          </mxGeometry>
        </mxCell>
        <mxCell id="Hw3TztuoLMvqJDftlQ13-145" value="&lt;font style=&quot;font-size: 16px&quot;&gt;signage potin&lt;/font&gt;" style="edgeLabel;html=1;align=center;verticalAlign=middle;resizable=0;points=[];" parent="Hw3TztuoLMvqJDftlQ13-141" vertex="1" connectable="0">
          <mxGeometry x="0.6392" y="2" relative="1" as="geometry">
            <mxPoint x="1" as="offset" />
          </mxGeometry>
        </mxCell>
        <mxCell id="Hw3TztuoLMvqJDftlQ13-142" value="" style="endArrow=none;html=1;" parent="1" edge="1">
          <mxGeometry width="50" height="50" relative="1" as="geometry">
            <mxPoint x="-865" y="187.5" as="sourcePoint" />
            <mxPoint x="-865" y="60" as="targetPoint" />
          </mxGeometry>
        </mxCell>
        <mxCell id="Hw3TztuoLMvqJDftlQ13-143" value="" style="endArrow=none;html=1;" parent="1" edge="1">
          <mxGeometry width="50" height="50" relative="1" as="geometry">
            <mxPoint x="-795" y="187.5" as="sourcePoint" />
            <mxPoint x="-795" y="60" as="targetPoint" />
          </mxGeometry>
        </mxCell>
        <mxCell id="Hw3TztuoLMvqJDftlQ13-144" value="" style="endArrow=none;html=1;" parent="1" edge="1">
          <mxGeometry width="50" height="50" relative="1" as="geometry">
            <mxPoint x="-715" y="187.5" as="sourcePoint" />
            <mxPoint x="-715" y="60" as="targetPoint" />
          </mxGeometry>
        </mxCell>
        <mxCell id="Hw3TztuoLMvqJDftlQ13-146" value="VDF" style="ellipse;whiteSpace=wrap;html=1;aspect=fixed;strokeWidth=1;" parent="1" vertex="1">
          <mxGeometry x="-1365" y="-817.5" width="30" height="30" as="geometry" />
        </mxCell>
        <mxCell id="Hw3TztuoLMvqJDftlQ13-150" value="&lt;span&gt;VDF&lt;/span&gt;" style="ellipse;whiteSpace=wrap;html=1;aspect=fixed;strokeWidth=1;" parent="1" vertex="1">
          <mxGeometry x="-1325" y="-817.5" width="30" height="30" as="geometry" />
        </mxCell>
        <mxCell id="Hw3TztuoLMvqJDftlQ13-151" value="&lt;span&gt;VDF&lt;/span&gt;" style="ellipse;whiteSpace=wrap;html=1;aspect=fixed;strokeWidth=1;" parent="1" vertex="1">
          <mxGeometry x="-1285" y="-817.5" width="30" height="30" as="geometry" />
        </mxCell>
        <mxCell id="Hw3TztuoLMvqJDftlQ13-152" value="&lt;span&gt;VDF&lt;/span&gt;" style="ellipse;whiteSpace=wrap;html=1;aspect=fixed;strokeWidth=1;" parent="1" vertex="1">
          <mxGeometry x="-1245" y="-817.5" width="30" height="30" as="geometry" />
        </mxCell>
        <mxCell id="Hw3TztuoLMvqJDftlQ13-153" value="&lt;span&gt;VDF&lt;/span&gt;" style="ellipse;whiteSpace=wrap;html=1;aspect=fixed;strokeWidth=1;" parent="1" vertex="1">
          <mxGeometry x="-1205" y="-817.5" width="30" height="30" as="geometry" />
        </mxCell>
        <mxCell id="Hw3TztuoLMvqJDftlQ13-154" value="&lt;meta charset=&quot;utf-8&quot;&gt;&lt;span style=&quot;color: rgb(0, 0, 0); font-family: helvetica; font-size: 12px; font-style: normal; font-weight: 400; letter-spacing: normal; text-align: center; text-indent: 0px; text-transform: none; word-spacing: 0px; background-color: rgb(248, 249, 250); display: inline; float: none;&quot;&gt;VDF&lt;/span&gt;" style="ellipse;whiteSpace=wrap;html=1;aspect=fixed;strokeWidth=1;" parent="1" vertex="1">
          <mxGeometry x="-1165" y="-817.5" width="30" height="30" as="geometry" />
        </mxCell>
        <mxCell id="Hw3TztuoLMvqJDftlQ13-155" value="&lt;span&gt;VDF&lt;/span&gt;" style="ellipse;whiteSpace=wrap;html=1;aspect=fixed;strokeWidth=1;" parent="1" vertex="1">
          <mxGeometry x="-1125" y="-817.5" width="30" height="30" as="geometry" />
        </mxCell>
        <mxCell id="Hw3TztuoLMvqJDftlQ13-156" value="&lt;span&gt;VDF&lt;/span&gt;" style="ellipse;whiteSpace=wrap;html=1;aspect=fixed;strokeWidth=1;" parent="1" vertex="1">
          <mxGeometry x="-1085" y="-817.5" width="30" height="30" as="geometry" />
        </mxCell>
        <mxCell id="Hw3TztuoLMvqJDftlQ13-157" value="&lt;span&gt;VDF&lt;/span&gt;" style="ellipse;whiteSpace=wrap;html=1;aspect=fixed;strokeWidth=1;" parent="1" vertex="1">
          <mxGeometry x="-1045" y="-817.5" width="30" height="30" as="geometry" />
        </mxCell>
        <mxCell id="Hw3TztuoLMvqJDftlQ13-158" value="&lt;span&gt;VDF&lt;/span&gt;" style="ellipse;whiteSpace=wrap;html=1;aspect=fixed;strokeWidth=1;" parent="1" vertex="1">
          <mxGeometry x="-1005" y="-817.5" width="30" height="30" as="geometry" />
        </mxCell>
        <mxCell id="Hw3TztuoLMvqJDftlQ13-159" value="&lt;span&gt;VDF&lt;/span&gt;" style="ellipse;whiteSpace=wrap;html=1;aspect=fixed;strokeWidth=1;" parent="1" vertex="1">
          <mxGeometry x="-965" y="-817.5" width="30" height="30" as="geometry" />
        </mxCell>
        <mxCell id="Hw3TztuoLMvqJDftlQ13-160" value="&lt;span&gt;VDF&lt;/span&gt;" style="ellipse;whiteSpace=wrap;html=1;aspect=fixed;strokeWidth=1;" parent="1" vertex="1">
          <mxGeometry x="-925" y="-817.5" width="30" height="30" as="geometry" />
        </mxCell>
        <mxCell id="Hw3TztuoLMvqJDftlQ13-161" value="&lt;span&gt;VDF&lt;/span&gt;" style="ellipse;whiteSpace=wrap;html=1;aspect=fixed;strokeWidth=1;" parent="1" vertex="1">
          <mxGeometry x="-885" y="-817.5" width="30" height="30" as="geometry" />
        </mxCell>
        <mxCell id="Hw3TztuoLMvqJDftlQ13-162" value="&lt;span&gt;VDF&lt;/span&gt;" style="ellipse;whiteSpace=wrap;html=1;aspect=fixed;strokeWidth=1;" parent="1" vertex="1">
          <mxGeometry x="-845" y="-817.5" width="30" height="30" as="geometry" />
        </mxCell>
        <mxCell id="Hw3TztuoLMvqJDftlQ13-163" value="&lt;span&gt;VDF&lt;/span&gt;" style="ellipse;whiteSpace=wrap;html=1;aspect=fixed;strokeWidth=1;" parent="1" vertex="1">
          <mxGeometry x="-805" y="-817.5" width="30" height="30" as="geometry" />
        </mxCell>
        <mxCell id="Hw3TztuoLMvqJDftlQ13-164" value="&lt;span&gt;VDF&lt;/span&gt;" style="ellipse;whiteSpace=wrap;html=1;aspect=fixed;strokeWidth=1;" parent="1" vertex="1">
          <mxGeometry x="-765" y="-817.5" width="30" height="30" as="geometry" />
        </mxCell>
        <mxCell id="Hw3TztuoLMvqJDftlQ13-165" value="&lt;span&gt;VDF&lt;/span&gt;" style="ellipse;whiteSpace=wrap;html=1;aspect=fixed;strokeWidth=1;" parent="1" vertex="1">
          <mxGeometry x="-725" y="-817.5" width="30" height="30" as="geometry" />
        </mxCell>
        <mxCell id="Hw3TztuoLMvqJDftlQ13-166" value="&lt;span&gt;VDF&lt;/span&gt;" style="ellipse;whiteSpace=wrap;html=1;aspect=fixed;strokeWidth=1;" parent="1" vertex="1">
          <mxGeometry x="-685" y="-817.5" width="30" height="30" as="geometry" />
        </mxCell>
        <mxCell id="Hw3TztuoLMvqJDftlQ13-167" value="&lt;span&gt;VDF&lt;/span&gt;" style="ellipse;whiteSpace=wrap;html=1;aspect=fixed;strokeWidth=1;" parent="1" vertex="1">
          <mxGeometry x="-645" y="-817.5" width="30" height="30" as="geometry" />
        </mxCell>
        <mxCell id="Hw3TztuoLMvqJDftlQ13-168" value="&lt;span&gt;VDF&lt;/span&gt;" style="ellipse;whiteSpace=wrap;html=1;aspect=fixed;strokeWidth=1;" parent="1" vertex="1">
          <mxGeometry x="-605" y="-817.5" width="30" height="30" as="geometry" />
        </mxCell>
        <mxCell id="Hw3TztuoLMvqJDftlQ13-169" value="&lt;span&gt;VDF&lt;/span&gt;" style="ellipse;whiteSpace=wrap;html=1;aspect=fixed;strokeWidth=1;" parent="1" vertex="1">
          <mxGeometry x="-565" y="-817.5" width="30" height="30" as="geometry" />
        </mxCell>
        <mxCell id="Hw3TztuoLMvqJDftlQ13-170" value="&lt;span&gt;VDF&lt;/span&gt;" style="ellipse;whiteSpace=wrap;html=1;aspect=fixed;strokeWidth=1;" parent="1" vertex="1">
          <mxGeometry x="-525" y="-817.5" width="30" height="30" as="geometry" />
        </mxCell>
        <mxCell id="Hw3TztuoLMvqJDftlQ13-171" value="&lt;span&gt;VDF&lt;/span&gt;" style="ellipse;whiteSpace=wrap;html=1;aspect=fixed;strokeWidth=1;" parent="1" vertex="1">
          <mxGeometry x="-485" y="-817.5" width="30" height="30" as="geometry" />
        </mxCell>
        <mxCell id="Hw3TztuoLMvqJDftlQ13-172" value="&lt;span&gt;VDF&lt;/span&gt;" style="ellipse;whiteSpace=wrap;html=1;aspect=fixed;strokeWidth=1;" parent="1" vertex="1">
          <mxGeometry x="-445" y="-817.5" width="30" height="30" as="geometry" />
        </mxCell>
        <mxCell id="Hw3TztuoLMvqJDftlQ13-173" value="&lt;span&gt;VDF&lt;/span&gt;" style="ellipse;whiteSpace=wrap;html=1;aspect=fixed;strokeWidth=1;" parent="1" vertex="1">
          <mxGeometry x="-405" y="-817.5" width="30" height="30" as="geometry" />
        </mxCell>
        <mxCell id="Hw3TztuoLMvqJDftlQ13-174" value="&lt;span&gt;VDF&lt;/span&gt;" style="ellipse;whiteSpace=wrap;html=1;aspect=fixed;strokeWidth=1;" parent="1" vertex="1">
          <mxGeometry x="-365" y="-817.5" width="30" height="30" as="geometry" />
        </mxCell>
        <mxCell id="Hw3TztuoLMvqJDftlQ13-175" value="&lt;span&gt;VDF&lt;/span&gt;" style="ellipse;whiteSpace=wrap;html=1;aspect=fixed;strokeWidth=1;" parent="1" vertex="1">
          <mxGeometry x="-325" y="-817.5" width="30" height="30" as="geometry" />
        </mxCell>
        <mxCell id="Hw3TztuoLMvqJDftlQ13-176" value="&lt;span&gt;VDF&lt;/span&gt;" style="ellipse;whiteSpace=wrap;html=1;aspect=fixed;strokeWidth=1;" parent="1" vertex="1">
          <mxGeometry x="-285" y="-817.5" width="30" height="30" as="geometry" />
        </mxCell>
        <mxCell id="Hw3TztuoLMvqJDftlQ13-177" value="&lt;span&gt;...&lt;/span&gt;" style="ellipse;whiteSpace=wrap;html=1;aspect=fixed;strokeWidth=1;" parent="1" vertex="1">
          <mxGeometry x="-245" y="-817.5" width="30" height="30" as="geometry" />
        </mxCell>
        <mxCell id="Hw3TztuoLMvqJDftlQ13-178" value="VDF" style="ellipse;whiteSpace=wrap;html=1;aspect=fixed;strokeWidth=1;" parent="1" vertex="1">
          <mxGeometry x="-205" y="-817.5" width="30" height="30" as="geometry" />
        </mxCell>
        <mxCell id="Hw3TztuoLMvqJDftlQ13-188" value="" style="shape=curlyBracket;whiteSpace=wrap;html=1;rounded=1;strokeWidth=1;rotation=-90;" parent="1" vertex="1">
          <mxGeometry x="-782.5" y="-1350" width="20" height="1185" as="geometry" />
        </mxCell>
        <mxCell id="Hw3TztuoLMvqJDftlQ13-189" value="&lt;font style=&quot;font-size: 18px&quot;&gt;sub-slot&lt;/font&gt;" style="text;html=1;align=center;verticalAlign=middle;resizable=0;points=[];autosize=1;strokeColor=none;" parent="1" vertex="1">
          <mxGeometry x="-812.5" y="-737.5" width="80" height="20" as="geometry" />
        </mxCell>
        <mxCell id="Hw3TztuoLMvqJDftlQ13-191" value="" style="shape=curlyBracket;whiteSpace=wrap;html=1;rounded=1;strokeWidth=1;rotation=90;" parent="1" vertex="1">
          <mxGeometry x="-1320" y="-897.5" width="20" height="110" as="geometry" />
        </mxCell>
        <mxCell id="Hw3TztuoLMvqJDftlQ13-193" value="" style="line;strokeWidth=4;direction=south;html=1;perimeter=backbonePerimeter;points=[];outlineConnect=0;dashed=1;" parent="1" vertex="1">
          <mxGeometry x="-1255" y="-922.5" width="10" height="160" as="geometry" />
        </mxCell>
        <mxCell id="Hw3TztuoLMvqJDftlQ13-194" value="" style="line;strokeWidth=4;direction=south;html=1;perimeter=backbonePerimeter;points=[];outlineConnect=0;dashed=1;" parent="1" vertex="1">
          <mxGeometry x="-1135" y="-922.5" width="10" height="160" as="geometry" />
        </mxCell>
        <mxCell id="Hw3TztuoLMvqJDftlQ13-195" value="" style="line;strokeWidth=4;direction=south;html=1;perimeter=backbonePerimeter;points=[];outlineConnect=0;dashed=1;" parent="1" vertex="1">
          <mxGeometry x="-1015" y="-922.5" width="10" height="160" as="geometry" />
        </mxCell>
        <mxCell id="Hw3TztuoLMvqJDftlQ13-196" value="" style="line;strokeWidth=4;direction=south;html=1;perimeter=backbonePerimeter;points=[];outlineConnect=0;dashed=1;" parent="1" vertex="1">
          <mxGeometry x="-895" y="-922.5" width="10" height="160" as="geometry" />
        </mxCell>
        <mxCell id="Hw3TztuoLMvqJDftlQ13-197" value="" style="line;strokeWidth=4;direction=south;html=1;perimeter=backbonePerimeter;points=[];outlineConnect=0;dashed=1;" parent="1" vertex="1">
          <mxGeometry x="-775" y="-922.5" width="10" height="160" as="geometry" />
        </mxCell>
        <mxCell id="Hw3TztuoLMvqJDftlQ13-198" value="" style="line;strokeWidth=4;direction=south;html=1;perimeter=backbonePerimeter;points=[];outlineConnect=0;dashed=1;" parent="1" vertex="1">
          <mxGeometry x="-655" y="-922.5" width="10" height="160" as="geometry" />
        </mxCell>
        <mxCell id="Hw3TztuoLMvqJDftlQ13-199" value="" style="line;strokeWidth=4;direction=south;html=1;perimeter=backbonePerimeter;points=[];outlineConnect=0;dashed=1;" parent="1" vertex="1">
          <mxGeometry x="-535" y="-922.5" width="10" height="160" as="geometry" />
        </mxCell>
        <mxCell id="Hw3TztuoLMvqJDftlQ13-200" value="" style="line;strokeWidth=4;direction=south;html=1;perimeter=backbonePerimeter;points=[];outlineConnect=0;dashed=1;" parent="1" vertex="1">
          <mxGeometry x="-415" y="-922.5" width="10" height="160" as="geometry" />
        </mxCell>
        <mxCell id="Hw3TztuoLMvqJDftlQ13-201" value="" style="line;strokeWidth=4;direction=south;html=1;perimeter=backbonePerimeter;points=[];outlineConnect=0;dashed=1;" parent="1" vertex="1">
          <mxGeometry x="-295" y="-922.5" width="10" height="160" as="geometry" />
        </mxCell>
        <mxCell id="Hw3TztuoLMvqJDftlQ13-203" value="signage point" style="text;strokeColor=none;fillColor=none;html=1;fontSize=24;fontStyle=1;verticalAlign=middle;align=center;" parent="1" vertex="1">
          <mxGeometry x="-1305" y="-967.5" width="100" height="40" as="geometry" />
        </mxCell>
        <mxCell id="Hw3TztuoLMvqJDftlQ13-204" value="signage point" style="text;strokeColor=none;fillColor=none;html=1;fontSize=24;fontStyle=1;verticalAlign=middle;align=center;" parent="1" vertex="1">
          <mxGeometry x="-345" y="-967.5" width="100" height="40" as="geometry" />
        </mxCell>
        <mxCell id="Hw3TztuoLMvqJDftlQ13-210" value="" style="group" parent="1" vertex="1" connectable="0">
          <mxGeometry x="-1375" y="-695" width="265" height="20" as="geometry" />
        </mxCell>
        <mxCell id="Hw3TztuoLMvqJDftlQ13-208" value="" style="shape=curlyBracket;whiteSpace=wrap;html=1;rounded=1;strokeWidth=1;rotation=90;" parent="Hw3TztuoLMvqJDftlQ13-210" vertex="1">
          <mxGeometry x="200" y="-45" width="20" height="110" as="geometry" />
        </mxCell>
        <mxCell id="Hw3TztuoLMvqJDftlQ13-209" value="&lt;font style=&quot;font-size: 16px&quot;&gt;sub-slot划分为64个&lt;/font&gt;" style="text;html=1;align=center;verticalAlign=middle;resizable=0;points=[];autosize=1;strokeColor=none;" parent="Hw3TztuoLMvqJDftlQ13-210" vertex="1">
          <mxGeometry width="150" height="20" as="geometry" />
        </mxCell>
        <mxCell id="Hw3TztuoLMvqJDftlQ13-215" value="sp interval iterations = sub slot iterations / 64" style="text;html=1;align=center;verticalAlign=middle;resizable=0;points=[];autosize=1;strokeColor=none;" parent="1" vertex="1">
          <mxGeometry x="-1570" y="-867.5" width="250" height="20" as="geometry" />
        </mxCell>
        <mxCell id="Hw3TztuoLMvqJDftlQ13-216" value="sub slot iterations" style="text;html=1;align=center;verticalAlign=middle;resizable=0;points=[];autosize=1;strokeColor=none;" parent="1" vertex="1">
          <mxGeometry x="-827.5" y="-697.5" width="110" height="20" as="geometry" />
        </mxCell>
        <mxCell id="Hw3TztuoLMvqJDftlQ13-223" style="edgeStyle=orthogonalEdgeStyle;rounded=0;orthogonalLoop=1;jettySize=auto;html=1;exitX=1;exitY=0;exitDx=0;exitDy=0;entryX=0.397;entryY=1.029;entryDx=0;entryDy=0;entryPerimeter=0;curved=1;" parent="1" source="Hw3TztuoLMvqJDftlQ13-218" target="Hw3TztuoLMvqJDftlQ13-220" edge="1">
          <mxGeometry relative="1" as="geometry">
            <mxPoint x="-1061.6274169979697" y="-1183.8822509939082" as="sourcePoint" />
          </mxGeometry>
        </mxCell>
        <mxCell id="Hw3TztuoLMvqJDftlQ13-226" style="edgeStyle=orthogonalEdgeStyle;rounded=0;orthogonalLoop=1;jettySize=auto;html=1;exitX=1;exitY=0;exitDx=0;exitDy=0;entryX=0;entryY=1;entryDx=0;entryDy=0;curved=1;" parent="1" source="Hw3TztuoLMvqJDftlQ13-218" target="Hw3TztuoLMvqJDftlQ13-221" edge="1">
          <mxGeometry relative="1" as="geometry">
            <mxPoint x="-993.745166004061" y="-1161.2548339959387" as="sourcePoint" />
          </mxGeometry>
        </mxCell>
        <mxCell id="Hw3TztuoLMvqJDftlQ13-227" style="edgeStyle=orthogonalEdgeStyle;rounded=0;orthogonalLoop=1;jettySize=auto;html=1;exitX=1;exitY=0;exitDx=0;exitDy=0;entryX=0;entryY=1;entryDx=0;entryDy=0;curved=1;" parent="1" source="Hw3TztuoLMvqJDftlQ13-218" target="Hw3TztuoLMvqJDftlQ13-222" edge="1">
          <mxGeometry relative="1" as="geometry">
            <mxPoint x="-993.745166004061" y="-1070.745166004061" as="sourcePoint" />
          </mxGeometry>
        </mxCell>
        <mxCell id="Hw3TztuoLMvqJDftlQ13-218" value="" style="shape=image;html=1;verticalAlign=top;verticalLabelPosition=bottom;labelBackgroundColor=#ffffff;imageAspect=0;aspect=fixed;image=https://cdn4.iconfinder.com/data/icons/free-large-boss-icon-set/128/King.png;dashed=1;strokeWidth=2;" parent="1" vertex="1">
          <mxGeometry x="-1194" y="-1080" width="128" height="128" as="geometry" />
        </mxCell>
        <mxCell id="Hw3TztuoLMvqJDftlQ13-230" style="edgeStyle=orthogonalEdgeStyle;curved=1;rounded=0;orthogonalLoop=1;jettySize=auto;html=1;exitX=0.5;exitY=0;exitDx=0;exitDy=0;" parent="1" source="Hw3TztuoLMvqJDftlQ13-220" target="Hw3TztuoLMvqJDftlQ13-229" edge="1">
          <mxGeometry relative="1" as="geometry" />
        </mxCell>
        <mxCell id="Hw3TztuoLMvqJDftlQ13-220" value="&lt;font style=&quot;font-size: 18px&quot;&gt;signage point&lt;/font&gt;" style="rounded=0;whiteSpace=wrap;html=1;strokeWidth=2;" parent="1" vertex="1">
          <mxGeometry x="-1140" y="-1320" width="120" height="60" as="geometry" />
        </mxCell>
        <mxCell id="Hw3TztuoLMvqJDftlQ13-221" value="&lt;font style=&quot;font-size: 18px&quot;&gt;VDF outputs&lt;/font&gt;" style="rounded=0;whiteSpace=wrap;html=1;strokeWidth=2;" parent="1" vertex="1">
          <mxGeometry x="-925" y="-1290" width="120" height="60" as="geometry" />
        </mxCell>
        <mxCell id="Hw3TztuoLMvqJDftlQ13-222" value="&lt;font style=&quot;font-size: 18px&quot;&gt;VDF proof&lt;/font&gt;" style="rounded=0;whiteSpace=wrap;html=1;strokeWidth=2;" parent="1" vertex="1">
          <mxGeometry x="-860" y="-1169" width="120" height="60" as="geometry" />
        </mxCell>
        <mxCell id="Hw3TztuoLMvqJDftlQ13-229" value="" style="shape=image;html=1;verticalAlign=top;verticalLabelPosition=bottom;labelBackgroundColor=#ffffff;imageAspect=0;aspect=fixed;image=https://cdn0.iconfinder.com/data/icons/streamline-emoji-1/48/138-man-farmer-2-128.png;strokeWidth=2;" parent="1" vertex="1">
          <mxGeometry x="-320" y="-1324" width="128" height="128" as="geometry" />
        </mxCell>
        <mxCell id="Hw3TztuoLMvqJDftlQ13-232" style="edgeStyle=orthogonalEdgeStyle;curved=1;rounded=0;orthogonalLoop=1;jettySize=auto;html=1;exitX=0.5;exitY=0;exitDx=0;exitDy=0;" parent="1" source="Hw3TztuoLMvqJDftlQ13-229" target="Hw3TztuoLMvqJDftlQ13-229" edge="1">
          <mxGeometry relative="1" as="geometry">
            <Array as="points">
              <mxPoint x="-256" y="-1344" />
              <mxPoint x="20" y="-1344" />
              <mxPoint x="20" y="-1176" />
              <mxPoint x="-256" y="-1176" />
            </Array>
          </mxGeometry>
        </mxCell>
        <mxCell id="Hw3TztuoLMvqJDftlQ13-247" value="plot filter = sha256(plot id + sub slot challenges || signage point)" style="text;strokeColor=none;fillColor=none;html=1;fontSize=24;fontStyle=1;verticalAlign=middle;align=center;" parent="1" vertex="1">
          <mxGeometry x="190" y="-1300" width="100" height="40" as="geometry" />
        </mxCell>
        <mxCell id="Hw3TztuoLMvqJDftlQ13-249" value="pos challenge = sha256(plot filter)" style="text;strokeColor=none;fillColor=none;html=1;fontSize=24;fontStyle=1;verticalAlign=middle;align=center;" parent="1" vertex="1">
          <mxGeometry x="20" y="-1200" width="100" height="40" as="geometry" />
        </mxCell>
        <mxCell id="Hw3TztuoLMvqJDftlQ13-250" value="" style="shape=image;html=1;verticalAlign=top;verticalLabelPosition=bottom;labelBackgroundColor=#ffffff;imageAspect=0;aspect=fixed;image=https://cdn3.iconfinder.com/data/icons/google-material-design-icons/48/ic_looks_one_48px-128.png;strokeWidth=2;" parent="1" vertex="1">
          <mxGeometry x="-120.86" y="-1333" width="43" height="43" as="geometry" />
        </mxCell>
        <mxCell id="Hw3TztuoLMvqJDftlQ13-251" value="" style="shape=image;html=1;verticalAlign=top;verticalLabelPosition=bottom;labelBackgroundColor=#ffffff;imageAspect=0;aspect=fixed;image=https://cdn3.iconfinder.com/data/icons/google-material-design-icons/48/ic_looks_two_48px-128.png;strokeWidth=2;" parent="1" vertex="1">
          <mxGeometry x="-130" y="-1230" width="44" height="44" as="geometry" />
        </mxCell>
        <mxCell id="Hw3TztuoLMvqJDftlQ13-252" value="" style="shape=image;html=1;verticalAlign=top;verticalLabelPosition=bottom;labelBackgroundColor=#ffffff;imageAspect=0;aspect=fixed;image=https://cdn3.iconfinder.com/data/icons/google-material-design-icons/48/ic_looks_3_48px-128.png;strokeWidth=2;" parent="1" vertex="1">
          <mxGeometry x="-136" y="-1140" width="50" height="50" as="geometry" />
        </mxCell>
        <mxCell id="Hw3TztuoLMvqJDftlQ13-257" style="edgeStyle=orthogonalEdgeStyle;curved=1;rounded=0;orthogonalLoop=1;jettySize=auto;html=1;exitX=1;exitY=0.5;exitDx=0;exitDy=0;" parent="1" source="Hw3TztuoLMvqJDftlQ13-254" target="Hw3TztuoLMvqJDftlQ13-255" edge="1">
          <mxGeometry relative="1" as="geometry" />
        </mxCell>
        <mxCell id="Hw3TztuoLMvqJDftlQ13-254" value="pos challenge" style="text;strokeColor=none;fillColor=none;html=1;fontSize=24;fontStyle=1;verticalAlign=middle;align=center;" parent="1" vertex="1">
          <mxGeometry x="-136" y="-1109" width="179.36" height="60" as="geometry" />
        </mxCell>
        <mxCell id="Hw3TztuoLMvqJDftlQ13-259" style="edgeStyle=orthogonalEdgeStyle;curved=1;rounded=0;orthogonalLoop=1;jettySize=auto;html=1;exitX=1;exitY=0.5;exitDx=0;exitDy=0;entryX=0;entryY=0.5;entryDx=0;entryDy=0;" parent="1" source="Hw3TztuoLMvqJDftlQ13-255" target="Hw3TztuoLMvqJDftlQ13-258" edge="1">
          <mxGeometry relative="1" as="geometry" />
        </mxCell>
        <mxCell id="OnlhV0EbAjbbrlNydcv9-27" style="edgeStyle=orthogonalEdgeStyle;rounded=0;orthogonalLoop=1;jettySize=auto;html=1;exitX=0.5;exitY=1;exitDx=0;exitDy=0;dashed=1;" edge="1" parent="1" source="Hw3TztuoLMvqJDftlQ13-255">
          <mxGeometry relative="1" as="geometry">
            <mxPoint x="164" y="-990" as="targetPoint" />
          </mxGeometry>
        </mxCell>
        <mxCell id="Hw3TztuoLMvqJDftlQ13-255" value="x-values" style="text;strokeColor=none;fillColor=none;html=1;fontSize=24;fontStyle=1;verticalAlign=middle;align=center;" parent="1" vertex="1">
          <mxGeometry x="114" y="-1099" width="100" height="40" as="geometry" />
        </mxCell>
        <mxCell id="Hw3TztuoLMvqJDftlQ13-258" value="quality string" style="text;strokeColor=none;fillColor=none;html=1;fontSize=24;fontStyle=1;verticalAlign=middle;align=center;" parent="1" vertex="1">
          <mxGeometry x="350" y="-1104" width="160" height="50" as="geometry" />
        </mxCell>
        <mxCell id="Hw3TztuoLMvqJDftlQ13-260" value="H()" style="text;html=1;align=center;verticalAlign=middle;resizable=0;points=[];autosize=1;strokeColor=none;" parent="1" vertex="1">
          <mxGeometry x="249" y="-1099" width="30" height="20" as="geometry" />
        </mxCell>
        <mxCell id="Hw3TztuoLMvqJDftlQ13-261" value="&lt;font style=&quot;font-size: 17px&quot;&gt;前9位为0，过滤地块&lt;/font&gt;" style="text;html=1;align=center;verticalAlign=middle;resizable=0;points=[];autosize=1;strokeColor=none;" parent="1" vertex="1">
          <mxGeometry x="657" y="-1290" width="170" height="20" as="geometry" />
        </mxCell>
        <mxCell id="OnlhV0EbAjbbrlNydcv9-19" value="difficulty" style="text;strokeColor=none;fillColor=none;html=1;fontSize=24;fontStyle=1;verticalAlign=middle;align=center;" vertex="1" parent="1">
          <mxGeometry x="350" y="-1059" width="160" height="50" as="geometry" />
        </mxCell>
        <mxCell id="OnlhV0EbAjbbrlNydcv9-20" value="plot size" style="text;strokeColor=none;fillColor=none;html=1;fontSize=24;fontStyle=1;verticalAlign=middle;align=center;" vertex="1" parent="1">
          <mxGeometry x="350" y="-1017.5" width="160" height="50" as="geometry" />
        </mxCell>
        <mxCell id="OnlhV0EbAjbbrlNydcv9-21" value="" style="group" vertex="1" connectable="0" parent="1">
          <mxGeometry x="600" y="-1055" width="380" height="525" as="geometry" />
        </mxCell>
        <mxCell id="OnlhV0EbAjbbrlNydcv9-1" value="required iterations" style="text;strokeColor=none;fillColor=none;html=1;fontSize=24;fontStyle=1;verticalAlign=middle;align=center;" vertex="1" parent="OnlhV0EbAjbbrlNydcv9-21">
          <mxGeometry x="60" width="260" height="44" as="geometry" />
        </mxCell>
        <mxCell id="OnlhV0EbAjbbrlNydcv9-6" value="if required itrations &amp;lt; &lt;b&gt;sp interval iterations&lt;/b&gt;" style="rhombus;whiteSpace=wrap;html=1;" vertex="1" parent="OnlhV0EbAjbbrlNydcv9-21">
          <mxGeometry y="114" width="380" height="78" as="geometry" />
        </mxCell>
        <mxCell id="OnlhV0EbAjbbrlNydcv9-8" style="edgeStyle=orthogonalEdgeStyle;rounded=0;orthogonalLoop=1;jettySize=auto;html=1;exitX=0.5;exitY=1;exitDx=0;exitDy=0;entryX=0.5;entryY=0;entryDx=0;entryDy=0;" edge="1" parent="OnlhV0EbAjbbrlNydcv9-21" source="OnlhV0EbAjbbrlNydcv9-1" target="OnlhV0EbAjbbrlNydcv9-6">
          <mxGeometry relative="1" as="geometry" />
        </mxCell>
        <mxCell id="OnlhV0EbAjbbrlNydcv9-10" value="&lt;span style=&quot;font-size: 18px&quot;&gt;PoS 有资格被加入到区块链中。从磁盘获取完整的PoS。&lt;/span&gt;" style="text;html=1;strokeColor=none;fillColor=none;align=center;verticalAlign=middle;whiteSpace=wrap;rounded=0;" vertex="1" parent="OnlhV0EbAjbbrlNydcv9-21">
          <mxGeometry x="67" y="280" width="246" height="70" as="geometry" />
        </mxCell>
        <mxCell id="OnlhV0EbAjbbrlNydcv9-13" style="edgeStyle=orthogonalEdgeStyle;rounded=0;orthogonalLoop=1;jettySize=auto;html=1;exitX=0.5;exitY=1;exitDx=0;exitDy=0;" edge="1" parent="OnlhV0EbAjbbrlNydcv9-21" source="OnlhV0EbAjbbrlNydcv9-6" target="OnlhV0EbAjbbrlNydcv9-10">
          <mxGeometry relative="1" as="geometry" />
        </mxCell>
        <mxCell id="OnlhV0EbAjbbrlNydcv9-14" value="Y" style="edgeLabel;html=1;align=center;verticalAlign=middle;resizable=0;points=[];" vertex="1" connectable="0" parent="OnlhV0EbAjbbrlNydcv9-13">
          <mxGeometry x="-0.2362" y="-2" relative="1" as="geometry">
            <mxPoint as="offset" />
          </mxGeometry>
        </mxCell>
        <mxCell id="OnlhV0EbAjbbrlNydcv9-17" value="&lt;span style=&quot;font-size: 18px&quot;&gt;创建一个&lt;b&gt;&lt;font color=&quot;#ff0000&quot;&gt;未完成的子块&lt;/font&gt;&lt;/b&gt;，并将其广播到网络中。&lt;/span&gt;" style="text;html=1;strokeColor=none;fillColor=none;align=center;verticalAlign=middle;whiteSpace=wrap;rounded=0;" vertex="1" parent="OnlhV0EbAjbbrlNydcv9-21">
          <mxGeometry x="67" y="455" width="246" height="70" as="geometry" />
        </mxCell>
        <mxCell id="OnlhV0EbAjbbrlNydcv9-18" style="edgeStyle=orthogonalEdgeStyle;rounded=0;orthogonalLoop=1;jettySize=auto;html=1;exitX=0.5;exitY=1;exitDx=0;exitDy=0;" edge="1" parent="OnlhV0EbAjbbrlNydcv9-21" source="OnlhV0EbAjbbrlNydcv9-10" target="OnlhV0EbAjbbrlNydcv9-17">
          <mxGeometry relative="1" as="geometry" />
        </mxCell>
        <mxCell id="OnlhV0EbAjbbrlNydcv9-23" style="edgeStyle=orthogonalEdgeStyle;rounded=0;orthogonalLoop=1;jettySize=auto;html=1;exitX=0.1;exitY=0.5;exitDx=0;exitDy=0;exitPerimeter=0;" edge="1" parent="1" source="OnlhV0EbAjbbrlNydcv9-22" target="OnlhV0EbAjbbrlNydcv9-1">
          <mxGeometry relative="1" as="geometry" />
        </mxCell>
        <mxCell id="OnlhV0EbAjbbrlNydcv9-22" value="" style="shape=curlyBracket;whiteSpace=wrap;html=1;rounded=1;flipH=1;" vertex="1" parent="1">
          <mxGeometry x="520" y="-1087" width="20" height="107" as="geometry" />
        </mxCell>
        <mxCell id="OnlhV0EbAjbbrlNydcv9-24" style="edgeStyle=orthogonalEdgeStyle;rounded=0;orthogonalLoop=1;jettySize=auto;html=1;exitX=1;exitY=0.5;exitDx=0;exitDy=0;" edge="1" parent="1" source="OnlhV0EbAjbbrlNydcv9-6">
          <mxGeometry relative="1" as="geometry">
            <mxPoint x="1070" y="-902" as="targetPoint" />
          </mxGeometry>
        </mxCell>
        <mxCell id="OnlhV0EbAjbbrlNydcv9-26" value="N" style="edgeLabel;html=1;align=center;verticalAlign=middle;resizable=0;points=[];" vertex="1" connectable="0" parent="OnlhV0EbAjbbrlNydcv9-24">
          <mxGeometry x="-0.2667" relative="1" as="geometry">
            <mxPoint y="1" as="offset" />
          </mxGeometry>
        </mxCell>
        <mxCell id="OnlhV0EbAjbbrlNydcv9-25" value="Pos没有资格被加入到区块链中" style="text;html=1;strokeColor=none;fillColor=none;align=center;verticalAlign=middle;whiteSpace=wrap;rounded=0;" vertex="1" parent="1">
          <mxGeometry x="1070" y="-927.5" width="80" height="52" as="geometry" />
        </mxCell>
        <mxCell id="OnlhV0EbAjbbrlNydcv9-28" value="&lt;font style=&quot;font-size: 18px&quot;&gt;PoS&lt;/font&gt;" style="text;html=1;align=center;verticalAlign=middle;resizable=0;points=[];autosize=1;strokeColor=none;" vertex="1" parent="1">
          <mxGeometry x="135" y="-990" width="50" height="20" as="geometry" />
        </mxCell>
        <mxCell id="OnlhV0EbAjbbrlNydcv9-29" value="" style="endArrow=none;html=1;startArrow=none;" edge="1" parent="1" source="OnlhV0EbAjbbrlNydcv9-133">
          <mxGeometry width="50" height="50" relative="1" as="geometry">
            <mxPoint x="-1410" y="-470" as="sourcePoint" />
            <mxPoint x="-360" y="-470" as="targetPoint" />
          </mxGeometry>
        </mxCell>
        <mxCell id="OnlhV0EbAjbbrlNydcv9-30" value="" style="line;strokeWidth=4;direction=south;html=1;perimeter=backbonePerimeter;points=[];outlineConnect=0;" vertex="1" parent="1">
          <mxGeometry x="-1385" y="-470" width="10" height="30" as="geometry" />
        </mxCell>
        <mxCell id="OnlhV0EbAjbbrlNydcv9-31" value="" style="endArrow=none;html=1;" edge="1" parent="1" target="OnlhV0EbAjbbrlNydcv9-30">
          <mxGeometry width="50" height="50" relative="1" as="geometry">
            <mxPoint x="-1410" y="-470" as="sourcePoint" />
            <mxPoint x="-360" y="-470" as="targetPoint" />
          </mxGeometry>
        </mxCell>
        <mxCell id="OnlhV0EbAjbbrlNydcv9-33" value="r1" style="whiteSpace=wrap;html=1;aspect=fixed;" vertex="1" parent="1">
          <mxGeometry x="-1450" y="-490" width="40" height="40" as="geometry" />
        </mxCell>
        <mxCell id="OnlhV0EbAjbbrlNydcv9-34" value="" style="line;strokeWidth=4;direction=south;html=1;perimeter=backbonePerimeter;points=[];outlineConnect=0;" vertex="1" parent="1">
          <mxGeometry x="-1355" y="-470" width="10" height="30" as="geometry" />
        </mxCell>
        <mxCell id="OnlhV0EbAjbbrlNydcv9-35" value="" style="line;strokeWidth=4;direction=south;html=1;perimeter=backbonePerimeter;points=[];outlineConnect=0;" vertex="1" parent="1">
          <mxGeometry x="-1320" y="-470" width="10" height="30" as="geometry" />
        </mxCell>
        <mxCell id="OnlhV0EbAjbbrlNydcv9-36" value="" style="line;strokeWidth=4;direction=south;html=1;perimeter=backbonePerimeter;points=[];outlineConnect=0;" vertex="1" parent="1">
          <mxGeometry x="-1290" y="-470" width="10" height="30" as="geometry" />
        </mxCell>
        <mxCell id="OnlhV0EbAjbbrlNydcv9-37" value="" style="line;strokeWidth=4;direction=south;html=1;perimeter=backbonePerimeter;points=[];outlineConnect=0;" vertex="1" parent="1">
          <mxGeometry x="-1260" y="-470" width="10" height="30" as="geometry" />
        </mxCell>
        <mxCell id="OnlhV0EbAjbbrlNydcv9-38" value="" style="endArrow=none;html=1;" edge="1" parent="1" target="OnlhV0EbAjbbrlNydcv9-37">
          <mxGeometry width="50" height="50" relative="1" as="geometry">
            <mxPoint x="-1285" y="-470" as="sourcePoint" />
            <mxPoint x="-235" y="-470" as="targetPoint" />
          </mxGeometry>
        </mxCell>
        <mxCell id="OnlhV0EbAjbbrlNydcv9-39" value="" style="line;strokeWidth=4;direction=south;html=1;perimeter=backbonePerimeter;points=[];outlineConnect=0;" vertex="1" parent="1">
          <mxGeometry x="-1230" y="-470" width="10" height="30" as="geometry" />
        </mxCell>
        <mxCell id="OnlhV0EbAjbbrlNydcv9-40" value="" style="line;strokeWidth=4;direction=south;html=1;perimeter=backbonePerimeter;points=[];outlineConnect=0;" vertex="1" parent="1">
          <mxGeometry x="-1195" y="-470" width="10" height="30" as="geometry" />
        </mxCell>
        <mxCell id="OnlhV0EbAjbbrlNydcv9-41" value="" style="line;strokeWidth=4;direction=south;html=1;perimeter=backbonePerimeter;points=[];outlineConnect=0;" vertex="1" parent="1">
          <mxGeometry x="-1165" y="-470" width="10" height="30" as="geometry" />
        </mxCell>
        <mxCell id="OnlhV0EbAjbbrlNydcv9-56" value="" style="line;strokeWidth=4;direction=south;html=1;perimeter=backbonePerimeter;points=[];outlineConnect=0;" vertex="1" parent="1">
          <mxGeometry x="-1132.5" y="-470" width="10" height="30" as="geometry" />
        </mxCell>
        <mxCell id="OnlhV0EbAjbbrlNydcv9-57" value="" style="endArrow=none;html=1;" edge="1" parent="1" target="OnlhV0EbAjbbrlNydcv9-56">
          <mxGeometry width="50" height="50" relative="1" as="geometry">
            <mxPoint x="-1157.5" y="-470" as="sourcePoint" />
            <mxPoint x="-107.5" y="-470" as="targetPoint" />
          </mxGeometry>
        </mxCell>
        <mxCell id="OnlhV0EbAjbbrlNydcv9-58" value="" style="line;strokeWidth=4;direction=south;html=1;perimeter=backbonePerimeter;points=[];outlineConnect=0;" vertex="1" parent="1">
          <mxGeometry x="-1102.5" y="-470" width="10" height="30" as="geometry" />
        </mxCell>
        <mxCell id="OnlhV0EbAjbbrlNydcv9-59" value="" style="line;strokeWidth=4;direction=south;html=1;perimeter=backbonePerimeter;points=[];outlineConnect=0;strokeColor=#FF0000;" vertex="1" parent="1">
          <mxGeometry x="-1067.5" y="-470" width="10" height="30" as="geometry" />
        </mxCell>
        <mxCell id="OnlhV0EbAjbbrlNydcv9-60" value="" style="line;strokeWidth=4;direction=south;html=1;perimeter=backbonePerimeter;points=[];outlineConnect=0;" vertex="1" parent="1">
          <mxGeometry x="-1037.5" y="-470" width="10" height="30" as="geometry" />
        </mxCell>
        <mxCell id="OnlhV0EbAjbbrlNydcv9-61" value="" style="line;strokeWidth=4;direction=south;html=1;perimeter=backbonePerimeter;points=[];outlineConnect=0;" vertex="1" parent="1">
          <mxGeometry x="-1007.5" y="-470" width="10" height="30" as="geometry" />
        </mxCell>
        <mxCell id="OnlhV0EbAjbbrlNydcv9-62" value="" style="endArrow=none;html=1;" edge="1" parent="1" target="OnlhV0EbAjbbrlNydcv9-61">
          <mxGeometry width="50" height="50" relative="1" as="geometry">
            <mxPoint x="-1032.5" y="-470" as="sourcePoint" />
            <mxPoint x="17.5" y="-470" as="targetPoint" />
          </mxGeometry>
        </mxCell>
        <mxCell id="OnlhV0EbAjbbrlNydcv9-63" value="" style="line;strokeWidth=4;direction=south;html=1;perimeter=backbonePerimeter;points=[];outlineConnect=0;" vertex="1" parent="1">
          <mxGeometry x="-977.5" y="-470" width="10" height="30" as="geometry" />
        </mxCell>
        <mxCell id="OnlhV0EbAjbbrlNydcv9-64" value="" style="line;strokeWidth=4;direction=south;html=1;perimeter=backbonePerimeter;points=[];outlineConnect=0;" vertex="1" parent="1">
          <mxGeometry x="-942.5" y="-470" width="10" height="30" as="geometry" />
        </mxCell>
        <mxCell id="OnlhV0EbAjbbrlNydcv9-65" value="" style="line;strokeWidth=4;direction=south;html=1;perimeter=backbonePerimeter;points=[];outlineConnect=0;" vertex="1" parent="1">
          <mxGeometry x="-912.5" y="-470" width="10" height="30" as="geometry" />
        </mxCell>
        <mxCell id="OnlhV0EbAjbbrlNydcv9-106" value="" style="line;strokeWidth=4;direction=south;html=1;perimeter=backbonePerimeter;points=[];outlineConnect=0;" vertex="1" parent="1">
          <mxGeometry x="-871.25" y="-470" width="10" height="30" as="geometry" />
        </mxCell>
        <mxCell id="OnlhV0EbAjbbrlNydcv9-107" value="" style="line;strokeWidth=4;direction=south;html=1;perimeter=backbonePerimeter;points=[];outlineConnect=0;" vertex="1" parent="1">
          <mxGeometry x="-841.25" y="-470" width="10" height="30" as="geometry" />
        </mxCell>
        <mxCell id="OnlhV0EbAjbbrlNydcv9-108" value="" style="line;strokeWidth=4;direction=south;html=1;perimeter=backbonePerimeter;points=[];outlineConnect=0;" vertex="1" parent="1">
          <mxGeometry x="-806.25" y="-470" width="10" height="30" as="geometry" />
        </mxCell>
        <mxCell id="OnlhV0EbAjbbrlNydcv9-109" value="" style="line;strokeWidth=4;direction=south;html=1;perimeter=backbonePerimeter;points=[];outlineConnect=0;" vertex="1" parent="1">
          <mxGeometry x="-776.25" y="-470" width="10" height="30" as="geometry" />
        </mxCell>
        <mxCell id="OnlhV0EbAjbbrlNydcv9-110" value="" style="line;strokeWidth=4;direction=south;html=1;perimeter=backbonePerimeter;points=[];outlineConnect=0;" vertex="1" parent="1">
          <mxGeometry x="-746.25" y="-470" width="10" height="30" as="geometry" />
        </mxCell>
        <mxCell id="OnlhV0EbAjbbrlNydcv9-111" value="" style="endArrow=none;html=1;" edge="1" parent="1" target="OnlhV0EbAjbbrlNydcv9-110">
          <mxGeometry width="50" height="50" relative="1" as="geometry">
            <mxPoint x="-771.25" y="-470" as="sourcePoint" />
            <mxPoint x="278.75" y="-470" as="targetPoint" />
          </mxGeometry>
        </mxCell>
        <mxCell id="OnlhV0EbAjbbrlNydcv9-112" value="" style="line;strokeWidth=4;direction=south;html=1;perimeter=backbonePerimeter;points=[];outlineConnect=0;" vertex="1" parent="1">
          <mxGeometry x="-716.25" y="-470" width="10" height="30" as="geometry" />
        </mxCell>
        <mxCell id="OnlhV0EbAjbbrlNydcv9-113" value="" style="line;strokeWidth=4;direction=south;html=1;perimeter=backbonePerimeter;points=[];outlineConnect=0;" vertex="1" parent="1">
          <mxGeometry x="-681.25" y="-470" width="10" height="30" as="geometry" />
        </mxCell>
        <mxCell id="OnlhV0EbAjbbrlNydcv9-114" value="" style="line;strokeWidth=4;direction=south;html=1;perimeter=backbonePerimeter;points=[];outlineConnect=0;" vertex="1" parent="1">
          <mxGeometry x="-651.25" y="-470" width="10" height="30" as="geometry" />
        </mxCell>
        <mxCell id="OnlhV0EbAjbbrlNydcv9-115" value="" style="line;strokeWidth=4;direction=south;html=1;perimeter=backbonePerimeter;points=[];outlineConnect=0;" vertex="1" parent="1">
          <mxGeometry x="-618.75" y="-470" width="10" height="30" as="geometry" />
        </mxCell>
        <mxCell id="OnlhV0EbAjbbrlNydcv9-116" value="" style="endArrow=none;html=1;" edge="1" parent="1" target="OnlhV0EbAjbbrlNydcv9-115">
          <mxGeometry width="50" height="50" relative="1" as="geometry">
            <mxPoint x="-643.75" y="-470" as="sourcePoint" />
            <mxPoint x="406.25" y="-470" as="targetPoint" />
          </mxGeometry>
        </mxCell>
        <mxCell id="OnlhV0EbAjbbrlNydcv9-117" value="" style="line;strokeWidth=4;direction=south;html=1;perimeter=backbonePerimeter;points=[];outlineConnect=0;" vertex="1" parent="1">
          <mxGeometry x="-588.75" y="-470" width="10" height="30" as="geometry" />
        </mxCell>
        <mxCell id="OnlhV0EbAjbbrlNydcv9-118" value="" style="line;strokeWidth=4;direction=south;html=1;perimeter=backbonePerimeter;points=[];outlineConnect=0;" vertex="1" parent="1">
          <mxGeometry x="-553.75" y="-470" width="10" height="30" as="geometry" />
        </mxCell>
        <mxCell id="OnlhV0EbAjbbrlNydcv9-119" value="" style="line;strokeWidth=4;direction=south;html=1;perimeter=backbonePerimeter;points=[];outlineConnect=0;" vertex="1" parent="1">
          <mxGeometry x="-523.75" y="-470" width="10" height="30" as="geometry" />
        </mxCell>
        <mxCell id="OnlhV0EbAjbbrlNydcv9-120" value="" style="line;strokeWidth=4;direction=south;html=1;perimeter=backbonePerimeter;points=[];outlineConnect=0;" vertex="1" parent="1">
          <mxGeometry x="-493.75" y="-470" width="10" height="30" as="geometry" />
        </mxCell>
        <mxCell id="OnlhV0EbAjbbrlNydcv9-121" value="" style="endArrow=none;html=1;" edge="1" parent="1" target="OnlhV0EbAjbbrlNydcv9-120">
          <mxGeometry width="50" height="50" relative="1" as="geometry">
            <mxPoint x="-518.75" y="-470" as="sourcePoint" />
            <mxPoint x="531.25" y="-470" as="targetPoint" />
          </mxGeometry>
        </mxCell>
        <mxCell id="OnlhV0EbAjbbrlNydcv9-122" value="" style="line;strokeWidth=4;direction=south;html=1;perimeter=backbonePerimeter;points=[];outlineConnect=0;" vertex="1" parent="1">
          <mxGeometry x="-463.75" y="-470" width="10" height="30" as="geometry" />
        </mxCell>
        <mxCell id="OnlhV0EbAjbbrlNydcv9-123" value="" style="line;strokeWidth=4;direction=south;html=1;perimeter=backbonePerimeter;points=[];outlineConnect=0;" vertex="1" parent="1">
          <mxGeometry x="-428.75" y="-470" width="10" height="30" as="geometry" />
        </mxCell>
        <mxCell id="OnlhV0EbAjbbrlNydcv9-124" value="" style="line;strokeWidth=4;direction=south;html=1;perimeter=backbonePerimeter;points=[];outlineConnect=0;" vertex="1" parent="1">
          <mxGeometry x="-398.75" y="-470" width="10" height="30" as="geometry" />
        </mxCell>
        <mxCell id="OnlhV0EbAjbbrlNydcv9-125" value="r2" style="whiteSpace=wrap;html=1;aspect=fixed;" vertex="1" parent="1">
          <mxGeometry x="-360" y="-490" width="40" height="40" as="geometry" />
        </mxCell>
        <mxCell id="OnlhV0EbAjbbrlNydcv9-127" value="" style="shape=curlyBracket;whiteSpace=wrap;html=1;rounded=1;strokeWidth=1;rotation=90;size=0.5;" vertex="1" parent="1">
          <mxGeometry x="-1315" y="-500" width="25" height="30" as="geometry" />
        </mxCell>
        <mxCell id="OnlhV0EbAjbbrlNydcv9-130" value="sp interval iterations" style="text;html=1;strokeColor=none;fillColor=none;align=center;verticalAlign=middle;whiteSpace=wrap;rounded=0;" vertex="1" parent="1">
          <mxGeometry x="-1360" y="-520" width="115" height="20" as="geometry" />
        </mxCell>
        <mxCell id="OnlhV0EbAjbbrlNydcv9-132" style="rounded=0;orthogonalLoop=1;jettySize=auto;html=1;exitX=0.5;exitY=1;exitDx=0;exitDy=0;strokeColor=#FF0000;" edge="1" parent="1" source="OnlhV0EbAjbbrlNydcv9-131">
          <mxGeometry relative="1" as="geometry">
            <mxPoint x="-1066" y="-470" as="targetPoint" />
          </mxGeometry>
        </mxCell>
        <mxCell id="OnlhV0EbAjbbrlNydcv9-131" value="&lt;font color=&quot;#ff0000&quot;&gt;signage point iters 43.75M&lt;/font&gt;" style="text;html=1;strokeColor=none;fillColor=none;align=center;verticalAlign=middle;whiteSpace=wrap;rounded=0;" vertex="1" parent="1">
          <mxGeometry x="-1140" y="-584.5" width="147" height="25" as="geometry" />
        </mxCell>
        <mxCell id="OnlhV0EbAjbbrlNydcv9-133" value="&lt;font color=&quot;#1cff33&quot;&gt;b1&lt;/font&gt;" style="whiteSpace=wrap;html=1;aspect=fixed;strokeColor=#35FF1F;" vertex="1" parent="1">
          <mxGeometry x="-963.43" y="-480" width="20" height="20" as="geometry" />
        </mxCell>
        <mxCell id="OnlhV0EbAjbbrlNydcv9-136" value="" style="endArrow=none;html=1;startArrow=none;" edge="1" parent="1" source="OnlhV0EbAjbbrlNydcv9-30" target="OnlhV0EbAjbbrlNydcv9-133">
          <mxGeometry width="50" height="50" relative="1" as="geometry">
            <mxPoint x="-1379" y="-470" as="sourcePoint" />
            <mxPoint x="-360" y="-470" as="targetPoint" />
          </mxGeometry>
        </mxCell>
        <mxCell id="OnlhV0EbAjbbrlNydcv9-138" style="edgeStyle=none;rounded=0;orthogonalLoop=1;jettySize=auto;html=1;exitX=0;exitY=0.5;exitDx=0;exitDy=0;entryX=0.5;entryY=0;entryDx=0;entryDy=0;strokeColor=#35FF1F;" edge="1" parent="1" source="OnlhV0EbAjbbrlNydcv9-137" target="OnlhV0EbAjbbrlNydcv9-133">
          <mxGeometry relative="1" as="geometry" />
        </mxCell>
        <mxCell id="OnlhV0EbAjbbrlNydcv9-137" value="&lt;font color=&quot;#35ff1f&quot;&gt;infusion iterations&lt;/font&gt;" style="text;html=1;strokeColor=none;fillColor=none;align=center;verticalAlign=middle;whiteSpace=wrap;rounded=0;" vertex="1" parent="1">
          <mxGeometry x="-895" y="-530" width="105" as="geometry" />
        </mxCell>
        <mxCell id="OnlhV0EbAjbbrlNydcv9-139" value="&lt;span style=&quot;background-color: rgb(248 , 249 , 250)&quot;&gt;\(&lt;/span&gt;&lt;span style=&quot;color: rgb(55 , 53 , 47) ; font-family: , &amp;#34;nitti&amp;#34; , &amp;#34;menlo&amp;#34; , &amp;#34;courier&amp;#34; , monospace ; font-size: 14px ; background-color: rgba(242 , 241 , 238 , 0.6)&quot;&gt;infusion&lt;/span&gt;&lt;span class=&quot;token function selector&quot; style=&quot;outline: 0px ; box-sizing: border-box ; color: rgb(221 , 74 , 104) ; font-family: , &amp;#34;nitti&amp;#34; , &amp;#34;menlo&amp;#34; , &amp;#34;courier&amp;#34; , monospace ; font-size: 14px ; background-color: rgba(242 , 241 , 238 , 0.6)&quot;&gt;\ &lt;/span&gt;&lt;span style=&quot;color: rgb(55 , 53 , 47) ; font-family: , &amp;#34;nitti&amp;#34; , &amp;#34;menlo&amp;#34; , &amp;#34;courier&amp;#34; , monospace ; font-size: 14px ; background-color: rgba(242 , 241 , 238 , 0.6)&quot;&gt;iterations =( signage&lt;/span&gt;&lt;span class=&quot;token function selector&quot; style=&quot;outline: 0px ; box-sizing: border-box ; color: rgb(221 , 74 , 104) ; font-family: , &amp;#34;nitti&amp;#34; , &amp;#34;menlo&amp;#34; , &amp;#34;courier&amp;#34; , monospace ; font-size: 14px ; background-color: rgba(242 , 241 , 238 , 0.6)&quot;&gt;\ &lt;/span&gt;&lt;span style=&quot;color: rgb(55 , 53 , 47) ; font-family: , &amp;#34;nitti&amp;#34; , &amp;#34;menlo&amp;#34; , &amp;#34;courier&amp;#34; , monospace ; font-size: 14px ; background-color: rgba(242 , 241 , 238 , 0.6)&quot;&gt;point&lt;/span&gt;&lt;span class=&quot;token function selector&quot; style=&quot;outline: 0px ; box-sizing: border-box ; color: rgb(221 , 74 , 104) ; font-family: , &amp;#34;nitti&amp;#34; , &amp;#34;menlo&amp;#34; , &amp;#34;courier&amp;#34; , monospace ; font-size: 14px ; background-color: rgba(242 , 241 , 238 , 0.6)&quot;&gt;\ &lt;/span&gt;&lt;span style=&quot;color: rgb(55 , 53 , 47) ; font-family: , &amp;#34;nitti&amp;#34; , &amp;#34;menlo&amp;#34; , &amp;#34;courier&amp;#34; , monospace ; font-size: 14px ; background-color: rgba(242 , 241 , 238 , 0.6)&quot;&gt;iterations + 3&lt;/span&gt;&lt;span class=&quot;token function selector&quot; style=&quot;outline: 0px ; box-sizing: border-box ; color: rgb(221 , 74 , 104) ; font-family: , &amp;#34;nitti&amp;#34; , &amp;#34;menlo&amp;#34; , &amp;#34;courier&amp;#34; , monospace ; font-size: 14px ; background-color: rgba(242 , 241 , 238 , 0.6)&quot;&gt;\ &lt;/span&gt;&lt;span style=&quot;color: rgb(55 , 53 , 47) ; font-family: , &amp;#34;nitti&amp;#34; , &amp;#34;menlo&amp;#34; , &amp;#34;courier&amp;#34; , monospace ; font-size: 14px ; background-color: rgba(242 , 241 , 238 , 0.6)&quot;&gt;*&lt;/span&gt;&lt;span class=&quot;token function selector&quot; style=&quot;outline: 0px ; box-sizing: border-box ; color: rgb(221 , 74 , 104) ; font-family: , &amp;#34;nitti&amp;#34; , &amp;#34;menlo&amp;#34; , &amp;#34;courier&amp;#34; , monospace ; font-size: 14px ; background-color: rgba(242 , 241 , 238 , 0.6)&quot;&gt;\ &lt;/span&gt;&lt;span style=&quot;color: rgb(55 , 53 , 47) ; font-family: , &amp;#34;nitti&amp;#34; , &amp;#34;menlo&amp;#34; , &amp;#34;courier&amp;#34; , monospace ; font-size: 14px ; background-color: rgba(242 , 241 , 238 , 0.6)&quot;&gt;sp&lt;/span&gt;&lt;span class=&quot;token function selector&quot; style=&quot;outline: 0px ; box-sizing: border-box ; color: rgb(221 , 74 , 104) ; font-family: , &amp;#34;nitti&amp;#34; , &amp;#34;menlo&amp;#34; , &amp;#34;courier&amp;#34; , monospace ; font-size: 14px ; background-color: rgba(242 , 241 , 238 , 0.6)&quot;&gt;\ &lt;/span&gt;&lt;span style=&quot;color: rgb(55 , 53 , 47) ; font-family: , &amp;#34;nitti&amp;#34; , &amp;#34;menlo&amp;#34; , &amp;#34;courier&amp;#34; , monospace ; font-size: 14px ; background-color: rgba(242 , 241 , 238 , 0.6)&quot;&gt;interval&lt;/span&gt;&lt;span class=&quot;token function selector&quot; style=&quot;outline: 0px ; box-sizing: border-box ; color: rgb(221 , 74 , 104) ; font-family: , &amp;#34;nitti&amp;#34; , &amp;#34;menlo&amp;#34; , &amp;#34;courier&amp;#34; , monospace ; font-size: 14px ; background-color: rgba(242 , 241 , 238 , 0.6)&quot;&gt;\ &lt;/span&gt;&lt;span style=&quot;color: rgb(55 , 53 , 47) ; font-family: , &amp;#34;nitti&amp;#34; , &amp;#34;menlo&amp;#34; , &amp;#34;courier&amp;#34; , monospace ; font-size: 14px ; background-color: rgba(242 , 241 , 238 , 0.6)&quot;&gt;iterations&lt;/span&gt;&lt;span class=&quot;token function selector&quot; style=&quot;outline: 0px ; box-sizing: border-box ; color: rgb(221 , 74 , 104) ; font-family: , &amp;#34;nitti&amp;#34; , &amp;#34;menlo&amp;#34; , &amp;#34;courier&amp;#34; , monospace ; font-size: 14px ; background-color: rgba(242 , 241 , 238 , 0.6)&quot;&gt;\ &lt;/span&gt;&lt;span style=&quot;color: rgb(55 , 53 , 47) ; font-family: , &amp;#34;nitti&amp;#34; , &amp;#34;menlo&amp;#34; , &amp;#34;courier&amp;#34; , monospace ; font-size: 14px ; background-color: rgba(242 , 241 , 238 , 0.6)&quot;&gt;+&lt;/span&gt;&lt;span class=&quot;token function selector&quot; style=&quot;outline: 0px ; box-sizing: border-box ; color: rgb(221 , 74 , 104) ; font-family: , &amp;#34;nitti&amp;#34; , &amp;#34;menlo&amp;#34; , &amp;#34;courier&amp;#34; , monospace ; font-size: 14px ; background-color: rgba(242 , 241 , 238 , 0.6)&quot;&gt;\ &lt;/span&gt;&lt;span style=&quot;color: rgb(55 , 53 , 47) ; font-family: , &amp;#34;nitti&amp;#34; , &amp;#34;menlo&amp;#34; , &amp;#34;courier&amp;#34; , monospace ; font-size: 14px ; background-color: rgba(242 , 241 , 238 , 0.6)&quot;&gt;required&lt;/span&gt;&lt;span class=&quot;token function selector&quot; style=&quot;outline: 0px ; box-sizing: border-box ; color: rgb(221 , 74 , 104) ; font-family: , &amp;#34;nitti&amp;#34; , &amp;#34;menlo&amp;#34; , &amp;#34;courier&amp;#34; , monospace ; font-size: 14px ; background-color: rgba(242 , 241 , 238 , 0.6)&quot;&gt;\ &lt;/span&gt;&lt;span style=&quot;color: rgb(55 , 53 , 47) ; font-family: , &amp;#34;nitti&amp;#34; , &amp;#34;menlo&amp;#34; , &amp;#34;courier&amp;#34; , monospace ; font-size: 14px ; background-color: rgba(242 , 241 , 238 , 0.6)&quot;&gt;iterations)\)&lt;/span&gt;" style="text;html=1;align=center;verticalAlign=middle;resizable=0;points=[];autosize=1;strokeColor=none;" vertex="1" parent="1">
          <mxGeometry x="-1075" y="-620" width="640" height="20" as="geometry" />
        </mxCell>
      </root>
    </mxGraphModel>
  </diagram>
</mxfile>
